
        <svg xmlns="http://www.w3.org/2000/svg" xmlns:xlink="http://www.w3.org/1999/xlink" version="1.1" width="3185.7585139318885" 
        height="1142.4148606811145" viewBox="0 0 3185.7585139318885 1142.4148606811145">
			
			<g transform="scale(9.287925696594428) translate(10, 10)">
				<defs id="SvgjsDefs1317"></defs><g id="SvgjsG1318" featureKey="symbolContainer" transform="matrix(1,0,0,1,0,0)" fill="#1989ac">    <path xmlns="http://www.w3.org/2000/svg" fill-rule="nonzero" d="             M0,0             H103             V103             H0,0             z             M4,4             v95             h95             v-95             z     "></path></g><g id="SvgjsG1319" featureKey="symbolFeature-0" transform="matrix(0.8006818890571594,0,0,0.8006818890571594,13.96761143588643,13.519590857382992)" fill="#1989ac"><g xmlns="http://www.w3.org/2000/svg"><path d="M19.6,71.7l-1-6.1l-2.5,0.6c-0.6,0.1-1,0.8-0.9,1.4l2,9c-1,0.3-1.7,1.2-1.7,2.3c0,1.3,1.1,2.4,2.4,2.4   c0.1,0,0.2,0,0.4,0l1.8,8.1c0.1,0.6,0.8,1,1.4,0.9l2.5-0.6l-1.8-6C21.2,79.7,20.3,75.7,19.6,71.7z"></path><path d="M22.8,59.2c-0.1-0.4-0.5-0.6-0.8-0.5l-0.1,0c-1.2,0.3-1.6,2.6-1.6,2.6v0c-0.4,10.9,2,21.8,7.1,31.5l0,0   c0,0,1.4,1.9,2.6,1.6l0.1,0c0.4-0.1,0.6-0.5,0.5-0.8L22.8,59.2z"></path><path d="M33.3,62.4c-0.7-3.3-4-5.4-7.3-4.6l-1.7,0.4c-0.3,0.1-0.5,0.4-0.4,0.7l7.8,34.6c0.1,0.3,0.4,0.5,0.7,0.4   l1.7-0.4c3.3-0.7,5.4-4,4.6-7.3L33.3,62.4z"></path><path d="M74.8,61.3L74.8,61.3c0,0-0.5-2.3-1.6-2.6l-0.1,0c-0.4-0.1-0.8,0.2-0.8,0.5l-7.7,34.3   c-0.1,0.4,0.2,0.8,0.5,0.8l0.1,0c1.2,0.3,2.6-1.6,2.6-1.6l0,0C72.8,83,75.2,72.2,74.8,61.3z"></path><path d="M70.7,58.1L69,57.8c-3.3-0.7-6.6,1.3-7.3,4.6l-5.3,23.7c-0.7,3.3,1.3,6.6,4.6,7.3l1.7,0.4   c0.3,0.1,0.6-0.1,0.7-0.4l7.8-34.6C71.2,58.5,71,58.2,70.7,58.1z"></path><path d="M90.1,43.2c0.7-0.1,1.2-0.7,1.1-1.4c-1.3-11-6.3-21.2-14-28.8C69.1,5,58.5,0.6,47.5,0.6S25.9,5,17.8,13   c-7.7,7.6-12.6,17.7-14,28.8c-0.1,0.7,0.4,1.3,1.1,1.4l1.7,0.2c-0.1,1.5-0.2,3-0.2,4.5l-1.6,0L5,55l1.5,0c0,3.4,0.3,6.7,1,9.1   c1.7,5.5,3,8.5,7.3,13c0.3-0.6,0.8-1.1,1.4-1.4c-4-4.2-5.1-6.7-6.8-12.1c-0.7-2.2-0.9-5.3-0.9-8.5l1.5,0l-0.1-7.1l-1.4,0   c0-1.4,0.1-2.9,0.2-4.3l1.7,0.2c0.7,0.1,1.3-0.4,1.4-1.1c1.1-9.2,5.2-17.7,11.6-23.9C30,12.2,38.6,8.6,47.5,8.6S65,12.2,71.6,18.7   c6.4,6.3,10.5,14.7,11.6,23.9c0.1,0.7,0.7,1.1,1.4,1.1l1.7-0.2c0.1,1.4,0.2,2.9,0.2,4.3l-1.4,0l-0.1,7.1l1.5,0   c0,3.2-0.2,6.4-0.9,8.5c-1.7,5.4-2.7,8-6.8,12.1c0.6,0.3,1.1,0.8,1.4,1.4c4.3-4.5,5.6-7.5,7.3-13c0.7-2.4,1-5.7,1-9.1l1.5,0   l0.1-7.1l-1.6,0c0-1.5-0.1-3-0.2-4.5L90.1,43.2z"></path><path d="M77.7,76.5l2-9c0.1-0.6-0.3-1.3-0.9-1.4l-2.5-0.6l-1,6.1c-0.6,4-1.5,8-2.7,11.8l-1.8,6l2.5,0.6   c0.6,0.1,1.3-0.3,1.4-0.9l1.8-8.1c0.1,0,0.2,0,0.4,0c1.3,0,2.4-1.1,2.4-2.4C79.4,77.7,78.7,76.8,77.7,76.5z"></path></g></g><g id="SvgjsG1320" featureKey="nameFeature-0" transform="matrix(1.0185374021530151,0,0,1.0185374021530151,121.37034017226672,27.07761331434248)" fill="#111111"><path d="M1.6 40 l0 -31.2 l8.04 0 l9 21.36 l9.04 -21.36 l8.04 0 l0 31.2 l-7.96 0 l0 -14.68 l-6.48 14.68 l-5.24 0 l-6.48 -14.68 l0 14.68 l-7.96 0 z M38.92 28.36 c0 6.2 5.24 11.56 11.96 11.56 c6.68 0 11.92 -5.36 11.92 -11.56 c0 -6.16 -5.24 -11.52 -11.92 -11.52 c-6.72 0 -11.96 5.36 -11.96 11.52 z M56.4 28.36 c0 3 -2.32 5.52 -5.52 5.52 s-5.56 -2.56 -5.56 -5.52 c0 -2.92 2.36 -5.48 5.56 -5.48 s5.52 2.52 5.52 5.48 z M62.68000000000001 16.88 l9.4 23.08 l6.24 0 l9.44 -23.08 l-7.16 0 l-5.4 14.32 l-5.36 -14.32 l-7.16 0 z M90.96000000000001 12.399999999999999 c0 1.88 1.52 3.56 3.64 3.56 c2.08 0 3.68 -1.68 3.68 -3.56 c0 -1.84 -1.6 -3.64 -3.68 -3.64 c-2.12 0 -3.64 1.8 -3.64 3.64 z M91.36000000000001 16.84 l0 23.16 l6.48 0 l0 -23.16 l-6.48 0 z M99.8 28.36 c0 -6.16 5.24 -11.52 11.96 -11.52 c6.68 0 11.92 5.36 11.92 11.52 c0 0.84 -0.08 1.64 -0.24 2.4 l-16.68 0.04 c0.88 1.8 2.72 3.08 5 3.08 c1.56 0 2.96 -0.64 3.92 -1.6 l7.28 0 c-1.64 4.36 -6 7.64 -11.2 7.64 c-6.72 0 -11.96 -5.2 -11.96 -11.4 l0 -0.16 z M106.96000000000001 25.6 l-0.2 0.56 l10.12 0 l-0.32 -0.56 c-0.96 -1.6 -2.68 -2.72 -4.8 -2.72 s-3.88 1.12 -4.8 2.72 z M126.88 40 l0 -31.2 l23.96 0 l0 7.76 l-15.96 0 l0 4.48 l11.24 0 l0 7.24 l-11.24 0 l0 11.72 l-8 0 z M154.04 40.04 l6.48 0 l-0.08 -31.28 l-6.36 0 l0 0.4 z M163.72 12.399999999999999 c0 1.88 1.52 3.56 3.64 3.56 c2.08 0 3.68 -1.68 3.68 -3.56 c0 -1.84 -1.6 -3.64 -3.68 -3.64 c-2.12 0 -3.64 1.8 -3.64 3.64 z M164.12 16.84 l0 23.16 l6.48 0 l0 -23.16 l-6.48 0 z M182.20000000000002 28.439999999999998 l-7.96 11.52 l7.96 0 l3.88 -5.72 l3.92 5.72 l7.96 0 l-7.96 -11.52 l7.8 -11.6 l-7.76 0 l-3.96 5.96 l-3.92 -5.96 l-7.76 0 z"></path></g>
			</g>
		</svg>
	